<svg version="1" xmlns="http://www.w3.org/2000/svg" width="321.333" height="321.333" viewBox="0 0 241.000000 241.000000"><path d="M114 2.2c-2.6 2.8-2.5 5.3.1 7.2 1.8 1.2 2.1 2.4 2.1 6.5-.2 8.5-3.7 20.1-6.1 20.1-.4 0-4.1-3.4-8.2-7.5-5.9-6-7.4-8.1-7.4-10.6 0-4.9-4.3-6.2-8.5-2.4-1.1 1-2 2.4-2 3.1 0 1.5 4 4.5 5.1 3.8C91.2 21.1 99.2 37 101.5 47c.9 4.1 2.1 8.6 2.6 9.8.9 2.3 1 2.4 3.6.7 3.8-2.5 15-3.2 19.4-1.2 8.6 3.8 11 2.2 10.5-7.4-.4-7.1 2.2-17.3 6.9-27.6 3.3-7.2 3.9-8 6.1-7.5 1.3.2 3.1-.1 3.9-.8 1.3-1 1.2-1.7-.5-5-1-2.1-2.5-4-3.2-4.3-2.2-.8-5 2-5 4.9 0 1.8-1 3.6-2.8 5.1-1.6 1.3-5.8 6.4-9.5 11.3-3.7 5-7.1 9-7.5 9-1.3 0-4.7-6.1-5.6-10-1.2-5.8-1.2-13.2.2-13.7 3.4-1.3 1.9-7.3-2.2-9.2-2-.9-2.7-.7-4.4 1.1zM27.7 91C9.6 109.2 7.9 111.2 9.2 112.8c3.1 3.8 8.6 10.2 14.4 16.8 3.4 3.8 9.9 11.2 14.4 16.4 4.6 5.2 9.7 11.1 11.4 13 1.7 1.9 6 6.9 9.6 11 3.6 4.1 6.7 7.7 7 8 .3.3 3.4 3.9 7 8s6.7 7.7 7 8c.3.3 3.5 3.9 7 8 7.1 8.2 11.4 13.1 14.5 16.6 1.1 1.2 4.3 4.8 7 8 2.8 3.2 6.7 7.7 8.8 10.1l3.9 4.2 6.1-7.2c3.4-4 7.6-8.8 9.3-10.7 1.7-1.9 8.2-9.4 14.4-16.5 6.2-7.2 13.8-15.9 17-19.5 3.2-3.6 7.7-8.8 10-11.5 2.4-2.8 4.6-5.2 4.9-5.5.4-.3 6.3-7 13.1-15 6.9-8 13-15 13.6-15.5.6-.6 3.7-4.1 7-8 3.2-3.8 6.8-7.9 8-9.1 1.1-1.2 3.8-4.2 5.8-6.8l3.8-4.5L214.3 91l-20-20H47.6L27.7 91z"/></svg>