<svg xmlns="http://www.w3.org/2000/svg" width="16px" height="16px"><path fill="#fff" d="M15.9 11.3c-.1 1.3-.3 2.4-1.3 3.4s-2.1 1.2-3.4 1.3H8c-1.1 0-2.2 0-3.3-.1-1.3-.1-2.4-.3-3.4-1.3S.1 12.5 0 11.2V8c0-1.1 0-2.2.1-3.3.1-1.3.3-2.4 1.3-3.4S3.5.1 4.8 0H8c1.1 0 2.2 0 3.3.1 1.3.1 2.4.3 3.4 1.3s1.2 2.1 1.3 3.4V8c0 1.1 0 2.2-.1 3.3zM3.5 1.9c-.3.2-.6.3-.9.6-.3.2-.5.6-.6.9-.4.9-.3 3.4-.3 4.6s-.1 3.7.3 4.6c.2.4.3.6.6.9.3.3.6.5.9.6 1 .4 3.5.3 4.6.3s3.7.1 4.6-.3c.3-.2.6-.3.9-.6.2-.2.5-.6.6-.9.4-1 .3-3.5.3-4.6s.1-3.7-.3-4.6c-.2-.3-.3-.6-.6-.9-.2-.2-.6-.5-.9-.6-1-.4-3.5-.3-4.6-.3s-3.7-.1-4.6.3zM8.1 12c-2.2 0-4-1.8-4-4s1.8-4 4-4 4 1.8 4 4-1.8 4-4 4zm0-6.6C6.7 5.4 5.5 6.6 5.5 8s1.2 2.6 2.6 2.6 2.6-1.2 2.6-2.6-1.2-2.6-2.6-2.6zm4.1-.7c-.6 0-1-.4-1-1s.4-1 1-1 1 .4 1 1c0 .5-.4 1-1 1z"/></svg>