<svg xmlns="http://www.w3.org/2000/svg" width="10.1px" height="17px"><path fill="#fff" d="M10 9c-.3-.4-1-.8-1.8-.1 0 0-1.3 1-3.1 1S2 8.9 2 8.9C1.2 8.2.5 8.6.2 9c-.4.8 0 1.3 1.1 2 .8.6 2.1.8 2.9 1l-.7.7L1 15.2c-.4.4-.4 1 0 1.4l.1.1c.4.4 1 .4 1.4 0C3.1 15.9 4 15 5 14c1 1 2 1.8 2.5 2.7.4.4 1 .4 1.4 0l.1-.1c.4-.4.4-1 0-1.4l-2.5-2.5-.7-.7c.8-.1 2.1-.4 2.9-1 1.3-.7 1.7-1.2 1.3-2zm-4.9-.6c2.2 0 4.2-1.8 4.2-4.2C9.3 2 7.3 0 5.1 0S.9 2 .9 4.2c0 2.4 2 4.2 4.2 4.2zm0-6.3c1.1 0 2.1 1 2.1 2.1 0 1.3-1 2.1-2.1 2.1S3 5.5 3 4.2c0-1.1 1-2.1 2.1-2.1z"/></svg>