<svg xmlns="http://www.w3.org/2000/svg" width="17.6px" height="10px"><path fill="#fff" d="M16.2 3.4c-1.7 2.3-1.9 2.1-.5 3.6 1.4 1.3 1.7 1.9 1.7 2 0 0 .6 1-.6 1h-2.3c-.5.1-1.1-.3-1.1-.3-.9-.6-1.7-2.2-2.3-1.9 0 0-.7.2-.6 1.6 0 .3-.2.4-.2.4s-.3.2-.6.2h-1c-2.3.2-4.4-2-4.4-2S2.1 5.6 0 .9C-.1.6 0 .5 0 .5S.2.3.5.3H3c.3.1.4.3.4.3s.2.1.3.3c.3.7.6 1.3 1 1.9.9 1.8 1.6 2.2 1.9 2 0 0 .4-.3.3-2.5 0-.8-.3-1.2-.3-1.2-.1-.3-.5-.3-.7-.3s.1-.3.3-.5C6.6 0 7.4 0 8.4 0c.7 0 1 .1 1.2.1.9.2.6 1 .6 3.1 0 .6-.1 1.5.3 1.7.2.1.7 0 1.8-1.9l1-2c.1-.2.3-.3.3-.3s.2-.1.3-.1h2.6c.7-.1.9.3.9.3.4.1 0 1-1.2 2.5z"/></svg>