<svg xmlns="http://www.w3.org/2000/svg" width="20px" height="20px"><path fill="none" d="M0 0h20v20H0z"/><path fill="#fff" d="M17.857 17.143h-5C12.857 18.716 11.573 20 10 20s-2.857-1.284-2.857-2.857h-5a1.44 1.44 0 0 1-1.429-1.429c1.651-1.395 3.571-3.895 3.571-9.286 0-2.143 1.774-4.487 4.732-4.922a1.133 1.133 0 0 1-.088-.435 1.072 1.072 0 1 1 2.053.435c2.958.435 4.732 2.779 4.732 4.922 0 5.39 1.92 7.89 3.571 9.286a1.438 1.438 0 0 1-1.428 1.429zm-.603-1.429c-1.997-2.254-2.969-5.312-2.969-9.286 0-1.44-1.362-3.571-4.286-3.571S5.714 4.989 5.714 6.429c0 3.973-.971 7.031-2.969 9.286h14.509zM10 18.75a1.615 1.615 0 0 1-1.607-1.608c0-.1-.079-.179-.179-.179s-.179.079-.179.179c0 1.083.882 1.964 1.965 1.964.1 0 .178-.078.178-.178S10.1 18.75 10 18.75z"/></svg>